<mxfile host="app.diagrams.net" modified="2022-08-02T06:38:37.094Z" agent="5.0 (Windows NT 10.0; Win64; x64) AppleWebKit/537.36 (KHTML, like Gecko) Chrome/103.0.5060.134 Safari/537.36" etag="akpd4DMBl9AlU-Mj8v0D" version="16.1.0" type="github">
  <diagram id="kubIPsS-zQuDnJUvl1ML" name="Page-1">
    <mxGraphModel dx="2249" dy="762" grid="1" gridSize="10" guides="1" tooltips="1" connect="1" arrows="1" fold="1" page="1" pageScale="1" pageWidth="827" pageHeight="1169" math="0" shadow="0">
      <root>
        <mxCell id="0" />
        <mxCell id="1" parent="0" />
        <mxCell id="LUgBBV5X2RgzdChjrm3_-4" style="edgeStyle=orthogonalEdgeStyle;rounded=0;orthogonalLoop=1;jettySize=auto;html=1;entryX=0.21;entryY=0.017;entryDx=0;entryDy=0;entryPerimeter=0;" edge="1" parent="1" source="LUgBBV5X2RgzdChjrm3_-1" target="LUgBBV5X2RgzdChjrm3_-3">
          <mxGeometry relative="1" as="geometry" />
        </mxCell>
        <mxCell id="LUgBBV5X2RgzdChjrm3_-1" value="onNativeReady" style="rounded=0;whiteSpace=wrap;html=1;fillColor=none;" vertex="1" parent="1">
          <mxGeometry x="-70" y="170" width="120" height="60" as="geometry" />
        </mxCell>
        <mxCell id="LUgBBV5X2RgzdChjrm3_-5" style="edgeStyle=orthogonalEdgeStyle;rounded=0;orthogonalLoop=1;jettySize=auto;html=1;entryX=0.793;entryY=-0.033;entryDx=0;entryDy=0;entryPerimeter=0;" edge="1" parent="1" source="LUgBBV5X2RgzdChjrm3_-2" target="LUgBBV5X2RgzdChjrm3_-3">
          <mxGeometry relative="1" as="geometry">
            <mxPoint x="160" y="300" as="targetPoint" />
          </mxGeometry>
        </mxCell>
        <mxCell id="LUgBBV5X2RgzdChjrm3_-2" value="onPluginsReady" style="rounded=0;whiteSpace=wrap;html=1;fillColor=none;" vertex="1" parent="1">
          <mxGeometry x="100" y="170" width="120" height="60" as="geometry" />
        </mxCell>
        <mxCell id="LUgBBV5X2RgzdChjrm3_-3" value="FN" style="rounded=1;whiteSpace=wrap;html=1;fillColor=none;" vertex="1" parent="1">
          <mxGeometry x="-70" y="310" width="290" height="60" as="geometry" />
        </mxCell>
        <mxCell id="LUgBBV5X2RgzdChjrm3_-6" value="" style="rounded=0;whiteSpace=wrap;html=1;fillColor=none;" vertex="1" parent="1">
          <mxGeometry x="-200" y="160" width="460" height="80" as="geometry" />
        </mxCell>
        <mxCell id="LUgBBV5X2RgzdChjrm3_-7" value="join" style="text;html=1;strokeColor=none;fillColor=none;align=center;verticalAlign=middle;whiteSpace=wrap;rounded=0;" vertex="1" parent="1">
          <mxGeometry x="-180" y="185" width="60" height="30" as="geometry" />
        </mxCell>
      </root>
    </mxGraphModel>
  </diagram>
</mxfile>
